<svg id="Calque_1" data-name="Calque 1" xmlns="http://www.w3.org/2000/svg" viewBox="0 0 114.69 131.36"><defs><style>.cls-1{fill:#fff;}</style></defs><path class="cls-1" d="M275.14,404.38V393.31h8.05v1.87h-5.86v2.46h5.45v1.86h-5.45v3h6.07v1.86Z" transform="translate(-258.85 -344.34)"/><path class="cls-1" d="M285.26,404.38V393.31h3.52a12.63,12.63,0,0,1,2.6.16,2.88,2.88,0,0,1,1.57,1.09,3.45,3.45,0,0,1,.62,2.15,3.71,3.71,0,0,1-.36,1.72,3,3,0,0,1-.92,1.09,3.1,3.1,0,0,1-1.14.53,12.72,12.72,0,0,1-2.27.16h-1.43v4.17Zm2.19-9.2v3.14h1.2a5.46,5.46,0,0,0,1.73-.17,1.55,1.55,0,0,0,.69-.54,1.58,1.58,0,0,0,.25-.87,1.45,1.45,0,0,0-1.23-1.48,10.21,10.21,0,0,0-1.58-.08Z" transform="translate(-258.85 -344.34)"/><path class="cls-1" d="M295.39,404.38V393.31h7.44v1.87h-5.25v2.62h4.53v1.88h-4.53v4.7Z" transform="translate(-258.85 -344.34)"/><circle class="cls-1" cx="280.68" cy="448.69" r="5.54" transform="translate(-500.12 191.96) rotate(-67.5)"/><circle class="cls-1" cx="280.68" cy="432.08" r="5.54" transform="translate(-484.77 181.7) rotate(-67.5)"/><circle class="cls-1" cx="21.83" cy="71.12" r="5.54"/><path class="cls-1" d="M302.83,448.69a5.54,5.54,0,1,1-5.53-5.54A5.54,5.54,0,0,1,302.83,448.69Z" transform="translate(-258.85 -344.34)"/><path class="cls-1" d="M302.83,432.08a5.54,5.54,0,1,1-5.53-5.54A5.53,5.53,0,0,1,302.83,432.08Z" transform="translate(-258.85 -344.34)"/><path class="cls-1" d="M302.83,415.46a5.54,5.54,0,1,1-5.53-5.54A5.54,5.54,0,0,1,302.83,415.46Z" transform="translate(-258.85 -344.34)"/><path class="cls-1" d="M308.37,415.46a5.54,5.54,0,1,1,5.54,5.54A5.54,5.54,0,0,1,308.37,415.46Z" transform="translate(-258.85 -344.34)"/><path class="cls-1" d="M308.37,398.84a5.54,5.54,0,1,1,5.54,5.54A5.54,5.54,0,0,1,308.37,398.84Z" transform="translate(-258.85 -344.34)"/><path class="cls-1" d="M325,398.84a5.54,5.54,0,1,1,5.53,5.54A5.53,5.53,0,0,1,325,398.84Z" transform="translate(-258.85 -344.34)"/><path class="cls-1" d="M341.6,398.84a5.54,5.54,0,1,1,5.54,5.54A5.54,5.54,0,0,1,341.6,398.84Z" transform="translate(-258.85 -344.34)"/><path class="cls-1" d="M317.17,453.17a5.54,5.54,0,1,1-3.26-10,5.44,5.44,0,0,1,2.17.45v.28A38.33,38.33,0,0,0,317.17,453.17Z" transform="translate(-258.85 -344.34)"/><path class="cls-1" d="M318.78,429.44a36.46,36.46,0,0,0-2.1,7.43,5.54,5.54,0,1,1,2.1-7.43Z" transform="translate(-258.85 -344.34)"/><path class="cls-1" d="M335.59,413.22a30.64,30.64,0,0,0-4.81,2,24.22,24.22,0,0,0-4.8,3.37,5.6,5.6,0,0,1-1-3.18,5.54,5.54,0,0,1,10.6-2.24Z" transform="translate(-258.85 -344.34)"/><path class="cls-1" d="M351.17,411.66a39.77,39.77,0,0,0-4-.2,38.66,38.66,0,0,0-4.07.2,5.54,5.54,0,0,1,8.06,0Z" transform="translate(-258.85 -344.34)"/><path class="cls-1" d="M369,443h-6.31l-11.9,0h-3.52v7.29h18.26v11.57a27,27,0,0,1-7.71,4.39,27.61,27.61,0,0,1-10.43,2.05,25.81,25.81,0,0,1-9.17-1.65,26.08,26.08,0,0,1-2.44-1.06,18,18,0,0,1-6.41-5.26,19.2,19.2,0,0,1-1.92-3.05q-2.87-5.59-2.86-13.9a33.62,33.62,0,0,1,1.09-8.68,29.57,29.57,0,0,1,1.29-3.82,20.55,20.55,0,0,1,2.34-4.19,23.63,23.63,0,0,1,1.57-2,18.43,18.43,0,0,1,6.64-4.51,21.17,21.17,0,0,1,5.24-1.4,30.72,30.72,0,0,1,4.51-.31,23.76,23.76,0,0,1,4.28.37,20.16,20.16,0,0,1,4.28,1.26,14.26,14.26,0,0,1,5.93,4.34,16.36,16.36,0,0,1,.93,1.37,26.44,26.44,0,0,1,2.55,6.09l3.76-1,3.65-1a35.16,35.16,0,0,0-1.07-3.46,25.16,25.16,0,0,0-2.58-5.25V376.38a19.87,19.87,0,0,0-19.85-19.85h-4.52v-1.81a10.38,10.38,0,1,0-20.75,0v1.81H304v-1.81a10.38,10.38,0,1,0-20.76,0v1.81h-4.51a19.88,19.88,0,0,0-19.86,19.85v70.4a19.88,19.88,0,0,0,19.86,19.86h45.57a26.47,26.47,0,0,0,6.9,5.15,35.34,35.34,0,0,0,16.64,3.92A36.94,36.94,0,0,0,361,473.27a46,46,0,0,0,12.5-7.27V443Zm-38.81-88.24a4.07,4.07,0,0,1,8.13,0v10.15a4.07,4.07,0,1,1-8.13,0Zm-40.61,0a4.06,4.06,0,0,1,8.12,0v10.15a4.06,4.06,0,1,1-8.12,0Zm-24.37,21.66a13.54,13.54,0,0,1,13.54-13.54h4.51v2a10.38,10.38,0,0,0,20.76,0v-2h19.86v2a10.38,10.38,0,1,0,20.75,0v-2h4.52a13.54,13.54,0,0,1,13.54,13.54v4.52H265.17ZM319.87,427c-.39.82-.76,1.65-1.09,2.49a36.46,36.46,0,0,0-2.1,7.43,40.2,40.2,0,0,0-.6,6.73v.28a38.33,38.33,0,0,0,1.09,9.29,33,33,0,0,0,2.66,7.15H278.71a13.54,13.54,0,0,1-13.54-13.54V387.21h97.48v28a23.9,23.9,0,0,0-3.29-1.6,30.51,30.51,0,0,0-8.19-2,39.77,39.77,0,0,0-4-.2,38.66,38.66,0,0,0-4.07.2,34.12,34.12,0,0,0-7.52,1.56,30.64,30.64,0,0,0-4.81,2,24.22,24.22,0,0,0-4.8,3.37A26.53,26.53,0,0,0,319.87,427Z" transform="translate(-258.85 -344.34)"/><circle class="cls-1" cx="280.68" cy="448.69" r="5.54" transform="translate(-500.12 191.96) rotate(-67.5)"/><circle class="cls-1" cx="280.68" cy="432.08" r="5.54" transform="translate(-484.77 181.7) rotate(-67.5)"/><circle class="cls-1" cx="21.83" cy="71.12" r="5.54"/><path class="cls-1" d="M302.83,448.69a5.54,5.54,0,1,1-5.53-5.54A5.54,5.54,0,0,1,302.83,448.69Z" transform="translate(-258.85 -344.34)"/><path class="cls-1" d="M302.83,432.08a5.54,5.54,0,1,1-5.53-5.54A5.53,5.53,0,0,1,302.83,432.08Z" transform="translate(-258.85 -344.34)"/><path class="cls-1" d="M302.83,415.46a5.54,5.54,0,1,1-5.53-5.54A5.54,5.54,0,0,1,302.83,415.46Z" transform="translate(-258.85 -344.34)"/><path class="cls-1" d="M308.37,415.46a5.54,5.54,0,1,1,5.54,5.54A5.54,5.54,0,0,1,308.37,415.46Z" transform="translate(-258.85 -344.34)"/><path class="cls-1" d="M308.37,398.84a5.54,5.54,0,1,1,5.54,5.54A5.54,5.54,0,0,1,308.37,398.84Z" transform="translate(-258.85 -344.34)"/><path class="cls-1" d="M325,398.84a5.54,5.54,0,1,1,5.53,5.54A5.53,5.53,0,0,1,325,398.84Z" transform="translate(-258.85 -344.34)"/><path class="cls-1" d="M341.6,398.84a5.54,5.54,0,1,1,5.54,5.54A5.54,5.54,0,0,1,341.6,398.84Z" transform="translate(-258.85 -344.34)"/><path class="cls-1" d="M317.17,453.17a5.54,5.54,0,1,1-3.26-10,5.44,5.44,0,0,1,2.17.45v.28A38.33,38.33,0,0,0,317.17,453.17Z" transform="translate(-258.85 -344.34)"/><path class="cls-1" d="M318.78,429.44a36.46,36.46,0,0,0-2.1,7.43,5.54,5.54,0,1,1,2.1-7.43Z" transform="translate(-258.85 -344.34)"/><path class="cls-1" d="M335.59,413.22a30.64,30.64,0,0,0-4.81,2,24.22,24.22,0,0,0-4.8,3.37,5.6,5.6,0,0,1-1-3.18,5.54,5.54,0,0,1,10.6-2.24Z" transform="translate(-258.85 -344.34)"/><path class="cls-1" d="M351.17,411.66a39.77,39.77,0,0,0-4-.2,38.66,38.66,0,0,0-4.07.2,5.54,5.54,0,0,1,8.06,0Z" transform="translate(-258.85 -344.34)"/><circle class="cls-1" cx="21.83" cy="71.12" r="5.54"/><circle class="cls-1" cx="280.68" cy="432.08" r="5.54" transform="translate(-484.77 181.7) rotate(-67.5)"/><circle class="cls-1" cx="280.68" cy="448.69" r="5.54" transform="translate(-500.12 191.96) rotate(-67.5)"/><path class="cls-1" d="M302.83,415.46a5.54,5.54,0,1,1-5.53-5.54A5.54,5.54,0,0,1,302.83,415.46Z" transform="translate(-258.85 -344.34)"/><path class="cls-1" d="M302.83,432.08a5.54,5.54,0,1,1-5.53-5.54A5.53,5.53,0,0,1,302.83,432.08Z" transform="translate(-258.85 -344.34)"/><path class="cls-1" d="M302.83,448.69a5.54,5.54,0,1,1-5.53-5.54A5.54,5.54,0,0,1,302.83,448.69Z" transform="translate(-258.85 -344.34)"/><path class="cls-1" d="M319.45,415.46a5.54,5.54,0,1,1-5.54-5.54A5.54,5.54,0,0,1,319.45,415.46Z" transform="translate(-258.85 -344.34)"/><path class="cls-1" d="M318.78,429.44a36.46,36.46,0,0,0-2.1,7.43,5.54,5.54,0,1,1,2.1-7.43Z" transform="translate(-258.85 -344.34)"/><path class="cls-1" d="M317.17,453.17a5.54,5.54,0,1,1-3.26-10,5.44,5.44,0,0,1,2.17.45v.28A38.33,38.33,0,0,0,317.17,453.17Z" transform="translate(-258.85 -344.34)"/><path class="cls-1" d="M335.59,413.22a30.64,30.64,0,0,0-4.81,2,24.22,24.22,0,0,0-4.8,3.37,5.6,5.6,0,0,1-1-3.18,5.54,5.54,0,0,1,10.6-2.24Z" transform="translate(-258.85 -344.34)"/><path class="cls-1" d="M351.17,411.66a39.77,39.77,0,0,0-4-.2,38.66,38.66,0,0,0-4.07.2,5.54,5.54,0,0,1,8.06,0Z" transform="translate(-258.85 -344.34)"/><path class="cls-1" d="M319.45,398.84a5.54,5.54,0,1,1-5.54-5.53A5.54,5.54,0,0,1,319.45,398.84Z" transform="translate(-258.85 -344.34)"/><path class="cls-1" d="M336.06,398.84a5.54,5.54,0,1,1-5.54-5.53A5.54,5.54,0,0,1,336.06,398.84Z" transform="translate(-258.85 -344.34)"/><path class="cls-1" d="M352.68,398.84a5.54,5.54,0,1,1-5.54-5.53A5.54,5.54,0,0,1,352.68,398.84Z" transform="translate(-258.85 -344.34)"/></svg>