<svg id="Layer_1" data-name="Layer 1" xmlns="http://www.w3.org/2000/svg" viewBox="0 0 122.88 119.8"><defs><style>.cls-1{fill:#fff;}</style></defs><path class="cls-1" d="M50,0h0a50,50,0,0,1,50,50h0V50h0a50,50,0,0,1-2.6,15.89c-.28.84-.57,1.64-.87,2.41h0A50.08,50.08,0,0,1,91,78.64L120,104.78l0,0,.16.14v0a8.63,8.63,0,0,1,.67,11.75h0l-.18.21,0,0-.15.16,0,0a8.63,8.63,0,0,1-11.75.67h0l-.21-.18,0,0L78.76,90.86c-.88.63-1.78,1.21-2.69,1.77-1.23.75-2.51,1.47-3.81,2.11A49.67,49.67,0,0,1,50,100h0A50,50,0,0,1,0,50H0V50H0A49.95,49.95,0,0,1,50,0h0Zm0,11.21h0A38.79,38.79,0,0,0,11.21,50h0V50h0A38.79,38.79,0,0,0,50,88.76H50A38.79,38.79,0,0,0,88.76,50h0v0h0A38.79,38.79,0,0,0,50,11.21Z"/></svg>